<svg width="164" height="164" viewBox="0 0 164 164" fill="none" xmlns="http://www.w3.org/2000/svg">
<g clip-path="url(#clip0_1_16)">
<path d="M105.545 64.8943C105.905 65.8922 105.854 66.9922 105.403 67.9524C104.952 68.9127 104.138 69.6544 103.14 70.0144L73.0397 80.8751C72.0418 81.2351 70.9418 81.184 69.9816 80.733C69.0214 80.2819 68.2796 79.468 67.9196 78.4701C67.5595 77.4722 67.6107 76.3721 68.0617 75.4119C68.5127 74.4517 69.3267 73.71 70.3246 73.3499L100.425 62.4893C101.423 62.1292 102.523 62.1803 103.483 62.6314C104.444 63.0824 105.185 63.8964 105.545 64.8943ZM105.856 77.5396L75.7549 88.4002C74.757 88.7603 73.943 89.502 73.492 90.4622C73.041 91.4224 72.9899 92.5225 73.3499 93.5204C73.71 94.5183 74.4517 95.3323 75.4119 95.7833C76.3721 96.2343 77.4722 96.2854 78.4701 95.9254L108.571 85.0647C109.569 84.7047 110.383 83.963 110.834 83.0027C111.285 82.0425 111.336 80.9425 110.976 79.9446C110.616 78.9467 109.874 78.1327 108.914 77.6817C107.953 77.2306 106.853 77.1795 105.856 77.5396ZM113.498 28.0058L140.649 103.257C141.369 105.253 141.267 107.453 140.365 109.374C139.463 111.294 137.835 112.777 135.839 113.498L60.5877 140.649C58.5919 141.369 56.3918 141.267 54.4713 140.365C52.5509 139.463 51.0675 137.835 50.3473 135.839L23.1958 60.5877C22.4757 58.5919 22.5779 56.3917 23.4799 54.4713C24.382 52.5509 26.01 51.0674 28.0058 50.3473L103.257 23.1958C105.253 22.4757 107.453 22.5779 109.374 23.4799C111.294 24.382 112.778 26.01 113.498 28.0058ZM57.8725 133.124L69.1602 129.051L42.0087 53.7998L30.7209 57.8725L57.8725 133.124ZM133.124 105.972L105.972 30.7209L49.5338 51.0846L76.6854 126.336L133.124 105.972Z" fill="#6D28D9"/>
</g>
<defs>
<clipPath id="clip0_1_16">
<rect width="128" height="128" fill="white" transform="translate(0 43.4425) rotate(-19.84)"/>
</clipPath>
</defs>
</svg>
